<svg width="76" height="76" viewBox="0 0 76 76" fill="none" xmlns="http://www.w3.org/2000/svg">
<path d="M37.9686 6.65002C41.1655 6.65002 44.1249 8.27815 45.8186 10.8969L46.1405 11.4344L68.328 49.7156L68.5218 50.1094C69.076 51.4802 69.2982 52.9627 69.1701 54.4358C69.0421 55.9089 68.5674 57.3308 67.7848 58.5854C67.0023 59.8399 65.934 60.8916 64.6674 61.6545C63.4008 62.4174 61.9717 62.8699 60.4968 62.975L59.8749 63H16.1249L15.9718 62.9906L15.6218 62.9969C14.2299 62.9253 12.8715 62.5442 11.6455 61.8815C10.4194 61.2187 9.35657 60.2909 8.53426 59.1656L8.19363 58.6656C7.4494 57.4964 6.9737 56.1766 6.80078 54.8013C6.62786 53.4261 6.76204 52.0297 7.19364 50.7125L7.41864 50.1063L7.60614 49.7156L29.7686 11.4875C30.5792 10.022 31.7676 8.80034 33.2102 7.94962C34.6528 7.09889 36.297 6.65014 37.9718 6.65002H37.9686ZM38.0311 44.25L37.6343 44.2719C36.8747 44.3622 36.1747 44.728 35.6668 45.2999C35.1589 45.8718 34.8784 46.6101 34.8784 47.375C34.8784 48.1399 35.1589 48.8782 35.6668 49.4501C36.1747 50.022 36.8747 50.3878 37.6343 50.4781L37.9999 50.5L38.3968 50.4781C39.1563 50.3878 39.8563 50.022 40.3642 49.4501C40.8721 48.8782 41.1527 48.1399 41.1527 47.375C41.1527 46.6101 40.8721 45.8718 40.3642 45.2999C39.8563 44.728 39.1563 44.3622 38.3968 44.2719L38.0311 44.25ZM37.9999 25.5C37.2345 25.5001 36.4957 25.7811 35.9237 26.2898C35.3517 26.7984 34.9863 27.4992 34.8968 28.2594L34.8749 28.625V34.875L34.8968 35.2406C34.9871 36.0002 35.3529 36.7002 35.9248 37.2081C36.4967 37.716 37.235 37.9965 37.9999 37.9965C38.7648 37.9965 39.5031 37.716 40.075 37.2081C40.6469 36.7002 41.0127 36.0002 41.103 35.2406L41.1249 34.875V28.625L41.103 28.2594C41.0135 27.4992 40.648 26.7984 40.076 26.2898C39.5041 25.7811 38.7653 25.5001 37.9999 25.5Z" fill="#DF2E38"/>
</svg>
