<svg width="36" height="36" viewBox="0 0 36 36" fill="none" xmlns="http://www.w3.org/2000/svg">
<path d="M31.1249 8.83146C31.6977 9.14421 32.1734 9.59783 32.5029 10.1457C32.8325 10.6935 33.004 11.3157 32.9999 11.9483V23.6029C32.9999 24.8973 32.2616 26.091 31.0699 26.7198L19.82 33.5519C19.2622 33.8459 18.6362 34 18 34C17.3637 34 16.7377 33.8459 16.18 33.5519L4.93 26.7198C4.34694 26.4139 3.8602 25.9632 3.52068 25.4149C3.18117 24.8666 3.00134 24.2408 3 23.6029V11.9467C3 10.6523 3.73833 9.46027 4.93 8.83146L16.18 2.46335C16.7542 2.1594 17.3992 2 18.055 2C18.7107 2 19.3557 2.1594 19.93 2.46335L31.1799 8.83146H31.1249Z" stroke="black" stroke-width="2" stroke-linecap="round" stroke-linejoin="round"/>
<path d="M14 24V12L22 24V12" stroke="black" stroke-width="2" stroke-linecap="round" stroke-linejoin="round"/>
</svg>
